<svg width="20" height="20" viewBox="0 0 17 17" fill="none" xmlns="http://www.w3.org/2000/svg">
<circle cx="8.5" cy="8.5" r="7.9" stroke="#fff" stroke-width="1.2"/>
<path d="M12.75 13.9005V12.8282C12.75 12.2594 12.5261 11.7139 12.1276 11.3117C11.7291 10.9095 11.1886 10.6835 10.625 10.6835H6.375C5.81141 10.6835 5.27091 10.9095 4.8724 11.3117C4.47388 11.7139 4.25 12.2594 4.25 12.8282V13.9005" stroke="#fff" stroke-width="1.2" stroke-linecap="round" stroke-linejoin="round"/>
<path d="M8.5 8.53935C9.67361 8.53935 10.625 7.57915 10.625 6.39468C10.625 5.2102 9.67361 4.25 8.5 4.25C7.32639 4.25 6.375 5.2102 6.375 6.39468C6.375 7.57915 7.32639 8.53935 8.5 8.53935Z" stroke="#fff" stroke-width="1.2" stroke-linecap="round" stroke-linejoin="round"/>
</svg>
