<svg width="114" height="30" viewBox="0 0 114 30" fill="none" xmlns="http://www.w3.org/2000/svg">
    <rect width="114" height="30" fill="black"/>
    <rect width="33.2626" height="30" fill="white"/>
    <path d="M43.395 19.195C42.459 19.195 41.627 19 40.899 18.61C40.171 18.22 39.6033 17.6697 39.196 16.959C38.7887 16.2397 38.585 15.4077 38.585 14.463C38.585 13.5183 38.7887 12.6863 39.196 11.967C39.6033 11.2477 40.171 10.693 40.899 10.303C41.627 9.913 42.459 9.718 43.395 9.718C44.643 9.718 45.6873 10.0343 46.528 10.667V11.941C45.774 11.2737 44.7687 10.94 43.512 10.94C42.81 10.94 42.186 11.083 41.64 11.369C41.1027 11.655 40.6823 12.0667 40.379 12.604C40.0757 13.1327 39.924 13.7523 39.924 14.463C39.924 15.1737 40.0757 15.7977 40.379 16.335C40.691 16.8723 41.1157 17.284 41.653 17.57C42.199 17.856 42.8187 17.999 43.512 17.999C44.1533 17.999 44.7253 17.9167 45.228 17.752C45.7393 17.5787 46.2117 17.3057 46.645 16.933V18.22C45.865 18.87 44.7817 19.195 43.395 19.195ZM50.9034 19.195C50.2014 19.195 49.5817 19.065 49.0444 18.805C48.5157 18.5363 48.0997 18.155 47.7964 17.661C47.5017 17.1583 47.3544 16.569 47.3544 15.893C47.3544 15.2257 47.5017 14.6407 47.7964 14.138C48.0911 13.6353 48.5071 13.2497 49.0444 12.981C49.5817 12.7037 50.2014 12.565 50.9034 12.565C51.6054 12.565 52.2251 12.7037 52.7624 12.981C53.2997 13.2497 53.7157 13.6353 54.0104 14.138C54.3137 14.6407 54.4654 15.2257 54.4654 15.893C54.4654 16.569 54.3137 17.1583 54.0104 17.661C53.7157 18.155 53.2997 18.5363 52.7624 18.805C52.2251 19.065 51.6054 19.195 50.9034 19.195ZM50.9034 18.155C51.5794 18.155 52.1167 17.947 52.5154 17.531C52.9141 17.115 53.1134 16.569 53.1134 15.893C53.1134 15.191 52.9141 14.6363 52.5154 14.229C52.1167 13.8217 51.5794 13.618 50.9034 13.618C50.2274 13.618 49.6901 13.8217 49.2914 14.229C48.8927 14.6363 48.6934 15.191 48.6934 15.893C48.6934 16.569 48.8927 17.115 49.2914 17.531C49.6901 17.947 50.2274 18.155 50.9034 18.155ZM55.7618 12.76H57.0358V13.657C57.3304 13.2843 57.6901 13.0113 58.1148 12.838C58.5481 12.656 58.9988 12.565 59.4668 12.565C60.2988 12.565 60.9184 12.786 61.3258 13.228C61.7331 13.67 61.9368 14.2637 61.9368 15.009V19H60.6238V15.139C60.6238 14.125 60.1384 13.618 59.1678 13.618C58.7518 13.618 58.3618 13.7177 57.9978 13.917C57.6424 14.1077 57.3348 14.4023 57.0748 14.801V19H55.7618V12.76ZM63.8557 13.774H62.9067V12.76H63.8557V11.538C63.8557 10.8187 64.0593 10.2727 64.4667 9.9C64.874 9.51867 65.42 9.328 66.1047 9.328C66.46 9.328 66.7937 9.38 67.1057 9.484V10.576C66.863 10.4633 66.6117 10.407 66.3517 10.407C65.9443 10.407 65.6453 10.5067 65.4547 10.706C65.264 10.8967 65.1687 11.2 65.1687 11.616V12.76H66.7287V13.774H65.1687V19H63.8557V13.774ZM71.3117 19.195C70.159 19.195 69.2534 18.909 68.5947 18.337C67.9447 17.7563 67.6197 16.9417 67.6197 15.893C67.6197 14.8703 67.91 14.06 68.4907 13.462C69.08 12.864 69.9164 12.565 70.9997 12.565C71.719 12.565 72.33 12.7037 72.8327 12.981C73.3354 13.2497 73.7124 13.6267 73.9637 14.112C74.2237 14.5887 74.3537 15.1347 74.3537 15.75V16.4H68.8677C68.911 16.9893 69.158 17.4313 69.6087 17.726C70.068 18.012 70.6877 18.155 71.4677 18.155C71.8664 18.155 72.2694 18.1203 72.6767 18.051C73.084 17.973 73.4437 17.8733 73.7557 17.752V18.805C73.4784 18.9177 73.11 19.0087 72.6507 19.078C72.2 19.156 71.7537 19.195 71.3117 19.195ZM73.1187 15.477C73.1014 14.8877 72.9064 14.4327 72.5337 14.112C72.1697 13.7827 71.6497 13.618 70.9737 13.618C70.315 13.618 69.8037 13.787 69.4397 14.125C69.0757 14.463 68.885 14.9137 68.8677 15.477H73.1187ZM75.6589 12.76H76.9329V13.878C77.1929 13.4967 77.5569 13.215 78.0249 13.033C78.5015 12.851 79.0519 12.76 79.6759 12.76V13.787C79.0085 13.787 78.4365 13.8953 77.9599 14.112C77.4832 14.3287 77.1539 14.671 76.9719 15.139V19H75.6589V12.76ZM83.7597 19.195C82.607 19.195 81.7014 18.909 81.0427 18.337C80.3927 17.7563 80.0677 16.9417 80.0677 15.893C80.0677 14.8703 80.358 14.06 80.9387 13.462C81.528 12.864 82.3644 12.565 83.4477 12.565C84.167 12.565 84.778 12.7037 85.2807 12.981C85.7834 13.2497 86.1604 13.6267 86.4117 14.112C86.6717 14.5887 86.8017 15.1347 86.8017 15.75V16.4H81.3157C81.359 16.9893 81.606 17.4313 82.0567 17.726C82.516 18.012 83.1357 18.155 83.9157 18.155C84.3144 18.155 84.7174 18.1203 85.1247 18.051C85.532 17.973 85.8917 17.8733 86.2037 17.752V18.805C85.9264 18.9177 85.558 19.0087 85.0987 19.078C84.648 19.156 84.2017 19.195 83.7597 19.195ZM85.5667 15.477C85.5494 14.8877 85.3544 14.4327 84.9817 14.112C84.6177 13.7827 84.0977 13.618 83.4217 13.618C82.763 13.618 82.2517 13.787 81.8877 14.125C81.5237 14.463 81.333 14.9137 81.3157 15.477H85.5667ZM88.1069 12.76H89.3809V13.657C89.6755 13.2843 90.0352 13.0113 90.4599 12.838C90.8932 12.656 91.3439 12.565 91.8119 12.565C92.6439 12.565 93.2635 12.786 93.6709 13.228C94.0782 13.67 94.2819 14.2637 94.2819 15.009V19H92.9689V15.139C92.9689 14.125 92.4835 13.618 91.5129 13.618C91.0969 13.618 90.7069 13.7177 90.3429 13.917C89.9875 14.1077 89.6799 14.4023 89.4199 14.801V19H88.1069V12.76ZM99.0608 19.195C98.3675 19.195 97.7521 19.065 97.2148 18.805C96.6775 18.545 96.2571 18.168 95.9538 17.674C95.6591 17.1713 95.5118 16.5777 95.5118 15.893C95.5118 15.2083 95.6591 14.619 95.9538 14.125C96.2571 13.6223 96.6775 13.2367 97.2148 12.968C97.7608 12.6993 98.3848 12.565 99.0868 12.565C100.04 12.565 100.803 12.7513 101.375 13.124V14.203C100.811 13.813 100.092 13.618 99.2168 13.618C98.5061 13.618 97.9298 13.813 97.4878 14.203C97.0545 14.5843 96.8378 15.1477 96.8378 15.893C96.8378 16.6383 97.0545 17.2017 97.4878 17.583C97.9211 17.9643 98.4888 18.155 99.1908 18.155C100.066 18.155 100.82 17.947 101.453 17.531V18.597C101.149 18.805 100.803 18.9567 100.413 19.052C100.031 19.1473 99.5808 19.195 99.0608 19.195ZM106.183 19.195C105.031 19.195 104.125 18.909 103.466 18.337C102.816 17.7563 102.491 16.9417 102.491 15.893C102.491 14.8703 102.782 14.06 103.362 13.462C103.952 12.864 104.788 12.565 105.871 12.565C106.591 12.565 107.202 12.7037 107.704 12.981C108.207 13.2497 108.584 13.6267 108.835 14.112C109.095 14.5887 109.225 15.1347 109.225 15.75V16.4H103.739C103.783 16.9893 104.03 17.4313 104.48 17.726C104.94 18.012 105.559 18.155 106.339 18.155C106.738 18.155 107.141 18.1203 107.548 18.051C107.956 17.973 108.315 17.8733 108.627 17.752V18.805C108.35 18.9177 107.982 19.0087 107.522 19.078C107.072 19.156 106.625 19.195 106.183 19.195ZM107.99 15.477C107.973 14.8877 107.778 14.4327 107.405 14.112C107.041 13.7827 106.521 13.618 105.845 13.618C105.187 13.618 104.675 13.787 104.311 14.125C103.947 14.463 103.757 14.9137 103.739 15.477H107.99Z" fill="white"/>
    <path d="M2.585 9.913H3.963L5.991 16.816L7.993 9.913H9.033L11.022 16.816L13.05 9.913H14.428L11.776 19H10.515L8.5 12.136L6.498 19H5.237L2.585 9.913ZM18.1822 19.195C17.0295 19.195 16.1238 18.909 15.4652 18.337C14.8152 17.7563 14.4902 16.9417 14.4902 15.893C14.4902 14.8703 14.7805 14.06 15.3612 13.462C15.9505 12.864 16.7868 12.565 17.8702 12.565C18.5895 12.565 19.2005 12.7037 19.7032 12.981C20.2058 13.2497 20.5828 13.6267 20.8342 14.112C21.0942 14.5887 21.2242 15.1347 21.2242 15.75V16.4H15.7382C15.7815 16.9893 16.0285 17.4313 16.4792 17.726C16.9385 18.012 17.5582 18.155 18.3382 18.155C18.7368 18.155 19.1398 18.1203 19.5472 18.051C19.9545 17.973 20.3142 17.8733 20.6262 17.752V18.805C20.3488 18.9177 19.9805 19.0087 19.5212 19.078C19.0705 19.156 18.6242 19.195 18.1822 19.195ZM19.9892 15.477C19.9718 14.8877 19.7768 14.4327 19.4042 14.112C19.0402 13.7827 18.5202 13.618 17.8442 13.618C17.1855 13.618 16.6742 13.787 16.3102 14.125C15.9462 14.463 15.7555 14.9137 15.7382 15.477H19.9892ZM26.4033 19.195C25.84 19.195 25.3503 19.1083 24.9343 18.935C24.527 18.753 24.15 18.4713 23.8033 18.09V19H22.5293V9.393H23.8423V13.592C24.1283 13.254 24.4967 12.9983 24.9473 12.825C25.398 12.6517 25.8833 12.565 26.4033 12.565C27.0273 12.565 27.5863 12.708 28.0803 12.994C28.583 13.2713 28.973 13.6613 29.2503 14.164C29.5363 14.6667 29.6793 15.243 29.6793 15.893C29.6793 16.5517 29.5363 17.1323 29.2503 17.635C28.973 18.129 28.583 18.5147 28.0803 18.792C27.5863 19.0607 27.0273 19.195 26.4033 19.195ZM26.1043 18.155C26.529 18.155 26.9103 18.064 27.2483 17.882C27.595 17.6913 27.8637 17.4227 28.0543 17.076C28.2537 16.7293 28.3533 16.335 28.3533 15.893C28.3533 15.451 28.2537 15.0567 28.0543 14.71C27.8637 14.3633 27.595 14.0947 27.2483 13.904C26.9103 13.7133 26.529 13.618 26.1043 13.618C25.5757 13.618 25.1033 13.761 24.6873 14.047C24.2713 14.333 23.9897 14.7143 23.8423 15.191V16.595C24.007 17.0717 24.2887 17.453 24.6873 17.739C25.0947 18.0163 25.567 18.155 26.1043 18.155Z" fill="black"/>
</svg>
