<svg width="114" height="30" viewBox="0 0 114 30" fill="none" xmlns="http://www.w3.org/2000/svg">
<path d="M0 4C0 1.79086 1.79086 0 4 0H33.2626V30H4C1.79086 30 0 28.2091 0 26V4Z" fill="white"/>
<path d="M43.98 19.18C43.116 19.18 42.348 19 41.676 18.64C41.004 18.28 40.48 17.772 40.104 17.116C39.728 16.452 39.54 15.684 39.54 14.812C39.54 13.94 39.728 13.172 40.104 12.508C40.48 11.844 41.004 11.332 41.676 10.972C42.348 10.612 43.116 10.432 43.98 10.432C45.132 10.432 46.096 10.724 46.872 11.308V12.484C46.176 11.868 45.248 11.56 44.088 11.56C43.44 11.56 42.864 11.692 42.36 11.956C41.864 12.22 41.476 12.6 41.196 13.096C40.916 13.584 40.776 14.156 40.776 14.812C40.776 15.468 40.916 16.044 41.196 16.54C41.484 17.036 41.876 17.416 42.372 17.68C42.876 17.944 43.448 18.076 44.088 18.076C44.68 18.076 45.208 18 45.672 17.848C46.144 17.688 46.58 17.436 46.98 17.092V18.28C46.26 18.88 45.26 19.18 43.98 19.18ZM50.9108 19.18C50.2628 19.18 49.6908 19.06 49.1948 18.82C48.7068 18.572 48.3228 18.22 48.0428 17.764C47.7708 17.3 47.6348 16.756 47.6348 16.132C47.6348 15.516 47.7708 14.976 48.0428 14.512C48.3148 14.048 48.6988 13.692 49.1948 13.444C49.6908 13.188 50.2628 13.06 50.9108 13.06C51.5588 13.06 52.1308 13.188 52.6268 13.444C53.1228 13.692 53.5068 14.048 53.7788 14.512C54.0588 14.976 54.1988 15.516 54.1988 16.132C54.1988 16.756 54.0588 17.3 53.7788 17.764C53.5068 18.22 53.1228 18.572 52.6268 18.82C52.1308 19.06 51.5588 19.18 50.9108 19.18ZM50.9108 18.22C51.5348 18.22 52.0308 18.028 52.3988 17.644C52.7668 17.26 52.9508 16.756 52.9508 16.132C52.9508 15.484 52.7668 14.972 52.3988 14.596C52.0308 14.22 51.5348 14.032 50.9108 14.032C50.2868 14.032 49.7908 14.22 49.4228 14.596C49.0548 14.972 48.8708 15.484 48.8708 16.132C48.8708 16.756 49.0548 17.26 49.4228 17.644C49.7908 18.028 50.2868 18.22 50.9108 18.22ZM55.3955 13.24H56.5715V14.068C56.8435 13.724 57.1755 13.472 57.5675 13.312C57.9675 13.144 58.3835 13.06 58.8155 13.06C59.5835 13.06 60.1555 13.264 60.5315 13.672C60.9075 14.08 61.0955 14.628 61.0955 15.316V19H59.8835V15.436C59.8835 14.5 59.4355 14.032 58.5395 14.032C58.1555 14.032 57.7955 14.124 57.4595 14.308C57.1315 14.484 56.8475 14.756 56.6075 15.124V19H55.3955V13.24ZM62.8668 14.176H61.9908V13.24H62.8668V12.112C62.8668 11.448 63.0548 10.944 63.4308 10.6C63.8068 10.248 64.3108 10.072 64.9428 10.072C65.2708 10.072 65.5788 10.12 65.8668 10.216V11.224C65.6428 11.12 65.4108 11.068 65.1708 11.068C64.7948 11.068 64.5188 11.16 64.3428 11.344C64.1668 11.52 64.0788 11.8 64.0788 12.184V13.24H65.5188V14.176H64.0788V19H62.8668V14.176ZM69.7493 19.18C68.6853 19.18 67.8493 18.916 67.2413 18.388C66.6413 17.852 66.3413 17.1 66.3413 16.132C66.3413 15.188 66.6093 14.44 67.1453 13.888C67.6893 13.336 68.4613 13.06 69.4613 13.06C70.1253 13.06 70.6893 13.188 71.1533 13.444C71.6173 13.692 71.9653 14.04 72.1973 14.488C72.4373 14.928 72.5573 15.432 72.5573 16V16.6H67.4933C67.5333 17.144 67.7613 17.552 68.1773 17.824C68.6013 18.088 69.1733 18.22 69.8933 18.22C70.2613 18.22 70.6333 18.188 71.0093 18.124C71.3853 18.052 71.7173 17.96 72.0053 17.848V18.82C71.7493 18.924 71.4093 19.008 70.9853 19.072C70.5693 19.144 70.1573 19.18 69.7493 19.18ZM71.4173 15.748C71.4013 15.204 71.2213 14.784 70.8773 14.488C70.5413 14.184 70.0613 14.032 69.4373 14.032C68.8293 14.032 68.3573 14.188 68.0213 14.5C67.6853 14.812 67.5093 15.228 67.4933 15.748H71.4173ZM73.762 13.24H74.938V14.272C75.178 13.92 75.514 13.66 75.946 13.492C76.386 13.324 76.894 13.24 77.47 13.24V14.188C76.854 14.188 76.326 14.288 75.886 14.488C75.446 14.688 75.142 15.004 74.974 15.436V19H73.762V13.24ZM81.2397 19.18C80.1757 19.18 79.3397 18.916 78.7317 18.388C78.1317 17.852 77.8317 17.1 77.8317 16.132C77.8317 15.188 78.0997 14.44 78.6357 13.888C79.1797 13.336 79.9517 13.06 80.9517 13.06C81.6157 13.06 82.1797 13.188 82.6437 13.444C83.1077 13.692 83.4557 14.04 83.6877 14.488C83.9277 14.928 84.0477 15.432 84.0477 16V16.6H78.9837C79.0237 17.144 79.2517 17.552 79.6677 17.824C80.0917 18.088 80.6637 18.22 81.3837 18.22C81.7517 18.22 82.1237 18.188 82.4997 18.124C82.8757 18.052 83.2077 17.96 83.4957 17.848V18.82C83.2397 18.924 82.8997 19.008 82.4757 19.072C82.0597 19.144 81.6477 19.18 81.2397 19.18ZM82.9077 15.748C82.8917 15.204 82.7117 14.784 82.3677 14.488C82.0317 14.184 81.5517 14.032 80.9277 14.032C80.3197 14.032 79.8477 14.188 79.5117 14.5C79.1757 14.812 78.9997 15.228 78.9837 15.748H82.9077ZM85.2525 13.24H86.4285V14.068C86.7005 13.724 87.0325 13.472 87.4245 13.312C87.8245 13.144 88.2405 13.06 88.6725 13.06C89.4405 13.06 90.0125 13.264 90.3885 13.672C90.7645 14.08 90.9525 14.628 90.9525 15.316V19H89.7405V15.436C89.7405 14.5 89.2925 14.032 88.3965 14.032C88.0125 14.032 87.6525 14.124 87.3165 14.308C86.9885 14.484 86.7045 14.756 86.4645 15.124V19H85.2525V13.24ZM95.3638 19.18C94.7238 19.18 94.1558 19.06 93.6598 18.82C93.1638 18.58 92.7758 18.232 92.4958 17.776C92.2238 17.312 92.0878 16.764 92.0878 16.132C92.0878 15.5 92.2238 14.956 92.4958 14.5C92.7758 14.036 93.1638 13.68 93.6598 13.432C94.1638 13.184 94.7398 13.06 95.3878 13.06C96.2678 13.06 96.9718 13.232 97.4998 13.576V14.572C96.9798 14.212 96.3158 14.032 95.5078 14.032C94.8518 14.032 94.3198 14.212 93.9118 14.572C93.5118 14.924 93.3118 15.444 93.3118 16.132C93.3118 16.82 93.5118 17.34 93.9118 17.692C94.3118 18.044 94.8358 18.22 95.4838 18.22C96.2918 18.22 96.9878 18.028 97.5718 17.644V18.628C97.2918 18.82 96.9718 18.96 96.6118 19.048C96.2598 19.136 95.8438 19.18 95.3638 19.18ZM101.938 19.18C100.874 19.18 100.038 18.916 99.4303 18.388C98.8303 17.852 98.5303 17.1 98.5303 16.132C98.5303 15.188 98.7983 14.44 99.3343 13.888C99.8783 13.336 100.65 13.06 101.65 13.06C102.314 13.06 102.878 13.188 103.342 13.444C103.806 13.692 104.154 14.04 104.386 14.488C104.626 14.928 104.746 15.432 104.746 16V16.6H99.6823C99.7223 17.144 99.9503 17.552 100.366 17.824C100.79 18.088 101.362 18.22 102.082 18.22C102.45 18.22 102.822 18.188 103.198 18.124C103.574 18.052 103.906 17.96 104.194 17.848V18.82C103.938 18.924 103.598 19.008 103.174 19.072C102.758 19.144 102.346 19.18 101.938 19.18ZM103.606 15.748C103.59 15.204 103.41 14.784 103.066 14.488C102.73 14.184 102.25 14.032 101.626 14.032C101.018 14.032 100.546 14.188 100.21 14.5C99.8743 14.812 99.6983 15.228 99.6823 15.748H103.606Z" fill="white"/>
<path d="M3.54 10.612H4.812L6.684 16.984L8.532 10.612H9.492L11.328 16.984L13.2 10.612H14.472L12.024 19H10.86L9 12.664L7.152 19H5.988L3.54 10.612ZM17.9374 19.18C16.8734 19.18 16.0374 18.916 15.4294 18.388C14.8294 17.852 14.5294 17.1 14.5294 16.132C14.5294 15.188 14.7974 14.44 15.3334 13.888C15.8774 13.336 16.6494 13.06 17.6494 13.06C18.3134 13.06 18.8774 13.188 19.3414 13.444C19.8054 13.692 20.1534 14.04 20.3854 14.488C20.6254 14.928 20.7454 15.432 20.7454 16V16.6H15.6814C15.7214 17.144 15.9494 17.552 16.3654 17.824C16.7894 18.088 17.3614 18.22 18.0814 18.22C18.4494 18.22 18.8214 18.188 19.1974 18.124C19.5734 18.052 19.9054 17.96 20.1934 17.848V18.82C19.9374 18.924 19.5974 19.008 19.1734 19.072C18.7574 19.144 18.3454 19.18 17.9374 19.18ZM19.6054 15.748C19.5894 15.204 19.4094 14.784 19.0654 14.488C18.7294 14.184 18.2494 14.032 17.6254 14.032C17.0174 14.032 16.5454 14.188 16.2094 14.5C15.8734 14.812 15.6974 15.228 15.6814 15.748H19.6054ZM25.5262 19.18C25.0062 19.18 24.5542 19.1 24.1702 18.94C23.7942 18.772 23.4462 18.512 23.1262 18.16V19H21.9502V10.132H23.1622V14.008C23.4262 13.696 23.7662 13.46 24.1822 13.3C24.5982 13.14 25.0462 13.06 25.5262 13.06C26.1022 13.06 26.6182 13.192 27.0742 13.456C27.5382 13.712 27.8982 14.072 28.1542 14.536C28.4182 15 28.5502 15.532 28.5502 16.132C28.5502 16.74 28.4182 17.276 28.1542 17.74C27.8982 18.196 27.5382 18.552 27.0742 18.808C26.6182 19.056 26.1022 19.18 25.5262 19.18ZM25.2502 18.22C25.6422 18.22 25.9942 18.136 26.3062 17.968C26.6262 17.792 26.8742 17.544 27.0502 17.224C27.2342 16.904 27.3262 16.54 27.3262 16.132C27.3262 15.724 27.2342 15.36 27.0502 15.04C26.8742 14.72 26.6262 14.472 26.3062 14.296C25.9942 14.12 25.6422 14.032 25.2502 14.032C24.7622 14.032 24.3262 14.164 23.9422 14.428C23.5582 14.692 23.2982 15.044 23.1622 15.484V16.78C23.3142 17.22 23.5742 17.572 23.9422 17.836C24.3182 18.092 24.7542 18.22 25.2502 18.22Z" fill="black"/>
</svg>
